<?xml version="1.0" standalone="no"?>
<!DOCTYPE svg PUBLIC "-//W3C//DTD SVG 20010904//EN"
 "http://www.w3.org/TR/2001/REC-SVG-20010904/DTD/svg10.dtd">
<svg version="1.0" xmlns="http://www.w3.org/2000/svg"
 width="227.000000pt" height="227.000000pt" viewBox="0 0 227.000000 227.000000"
 preserveAspectRatio="xMidYMid meet">

<g transform="translate(0.000000,227.000000) scale(0.100000,-0.100000)"
fill="#000000" stroke="none">
<path d="M1032 1557 c-45 -14 -118 -80 -145 -131 -29 -54 -31 -174 -3 -226 90
-171 303 -200 430 -59 123 137 68 353 -105 414 -47 17 -128 18 -177 2z m150
-13 c11 -10 -143 -149 -173 -157 -22 -6 -29 -14 -29 -31 0 -13 7 -29 15 -36
16 -13 54 -5 57 13 0 7 2 17 2 23 1 7 37 49 80 94 76 80 78 81 107 70 36 -15
84 -69 105 -118 25 -60 16 -158 -22 -218 -51 -82 -162 -132 -248 -110 -25 6
-23 9 50 79 42 39 89 75 104 80 33 8 44 31 30 58 -19 34 -62 20 -71 -22 -2 -9
-39 -53 -81 -98 -87 -92 -92 -93 -152 -35 -47 46 -67 85 -73 148 -15 146 92
266 237 266 31 0 59 -3 62 -6z m-152 -194 c0 -5 -7 -10 -15 -10 -8 0 -15 5
-15 10 0 6 7 10 15 10 8 0 15 -4 15 -10z m210 -81 c0 -5 -7 -9 -15 -9 -15 0
-20 12 -9 23 8 8 24 -1 24 -14z"/>
<path d="M1182 1428 c-7 -7 -12 -21 -12 -33 0 -22 -115 -143 -126 -132 -13 13
-44 -14 -44 -38 0 -37 34 -51 60 -25 11 11 18 26 14 31 -9 16 106 129 131 129
41 0 57 36 29 64 -19 19 -36 20 -52 4z m38 -34 c0 -17 -22 -14 -28 4 -2 7 3
12 12 12 9 0 16 -7 16 -16z m-170 -169 c0 -8 -7 -15 -15 -15 -8 0 -15 7 -15
15 0 8 7 15 15 15 8 0 15 -7 15 -15z"/>
<path d="M1042 918 l3 -103 37 -3 c50 -4 78 24 78 78 0 49 -35 79 -69 60 -20
-10 -21 -8 -21 30 0 29 -4 40 -15 40 -13 0 -15 -16 -13 -102z m84 1 c11 -19 6
-71 -8 -80 -7 -5 -21 -9 -30 -9 -15 0 -18 9 -18 50 0 46 2 50 24 50 14 0 28
-5 32 -11z"/>
<path d="M1201 1006 c-12 -14 -5 -26 16 -26 15 0 18 26 4 34 -5 3 -14 0 -20
-8z"/>
<path d="M1440 988 c0 -29 -4 -33 -26 -35 -31 -1 -62 -29 -64 -58 -6 -63 13
-85 75 -83 l45 1 0 103 c0 86 -3 104 -15 104 -10 0 -15 -10 -15 -32z m-2 -105
c-3 -41 -6 -48 -26 -51 -23 -3 -44 29 -36 56 2 6 6 19 9 27 2 8 16 15 30 15
25 0 26 -2 23 -47z"/>
<path d="M800 970 c-9 -15 -13 -45 -12 -75 5 -72 10 -85 37 -85 31 0 41 16 15
23 -16 4 -20 14 -20 51 0 39 3 46 20 46 11 0 20 5 20 10 0 6 -9 10 -19 10 -13
0 -21 8 -23 23 l-3 22 -15 -25z"/>
<path d="M523 950 c-23 -9 -39 -50 -34 -85 7 -46 62 -70 101 -45 16 11 9 13
-32 10 -18 -1 -30 5 -38 19 -10 20 -8 21 35 21 43 0 45 1 45 29 0 20 -8 35
-22 45 -25 18 -25 18 -55 6z m47 -35 c0 -9 -9 -15 -25 -15 -16 0 -25 6 -25 15
0 9 9 15 25 15 16 0 25 -6 25 -15z"/>
<path d="M663 950 c-23 -9 -39 -50 -34 -85 7 -51 71 -73 104 -37 20 22 22 81
5 104 -17 21 -48 29 -75 18z m52 -70 c0 -39 -3 -45 -22 -48 -17 -3 -26 3 -33
22 -14 38 3 78 33 74 19 -3 22 -9 22 -48z"/>
<path d="M923 950 c-12 -5 -27 -19 -33 -30 -16 -29 -4 -87 20 -100 74 -40 136
55 75 115 -26 27 -30 28 -62 15z m55 -49 c6 -40 -7 -71 -28 -71 -26 0 -45 40
-36 75 5 21 12 26 34 23 20 -2 28 -9 30 -27z"/>
<path d="M1543 949 c-42 -15 -56 -76 -27 -117 16 -23 77 -32 89 -12 4 6 -6 10
-22 10 -28 0 -53 15 -53 32 0 4 18 8 40 8 45 0 56 13 41 52 -11 29 -37 39 -68
27z m45 -36 c2 -9 -7 -13 -27 -13 -30 0 -39 9 -24 24 11 10 46 3 51 -11z"/>
<path d="M1200 880 c0 -56 3 -70 15 -70 12 0 15 14 15 70 0 56 -3 70 -15 70
-12 0 -15 -14 -15 -70z"/>
<path d="M1658 880 c17 -45 32 -70 40 -68 8 2 23 26 33 53 31 81 32 85 16 85
-8 0 -18 -11 -21 -25 -3 -13 -11 -37 -17 -52 l-11 -28 -18 50 c-9 28 -24 51
-32 53 -13 3 -12 -9 10 -68z"/>
</g>
</svg>
